:SAMPLES-PER-SECOND 30
:FULLY-SPECIFIED
:DEGREES
189
root  1.964940049 38.89622125 -4.54184427 0.04899597168 -23.16900635 4.949005127
lowerback  15.63449955 -0.6975799799 -6.059179783
upperback  6.690239906 -1.886219978 -0.8755890131
thorax  -1.475440025 -1.069210052 2.809079885
lowerneck  0.8496609926 -1.374959946 -10.51760006
upperneck  7.283090115 -2.359369993 10.0678997
head  2.239870071 -1.216349959 4.735070229
lclavicle  0 -9.442270133e-015 7.951389973e-016
lhumerus  19.41740036 -19.74430084 80.76170349
lradius  1.829481812e-031 -3.020238457e-031 121.2050018
lwrist  -7.062250077e-031 -0 15.53820038
lhand  -1.496451383e-031 -27.76390076 20.11240005
lfingers  90 7.125020027 -90
lthumb  89.89689403 5.08795885 91.16245106
rclavicle  0 -9.442270133e-015 7.951389973e-016
rhumerus  17.21960068 9.525759697 -79.90249634
rradius  -2.302313599e-031 2.677348712e-031 130.6929932
rwrist  7.062250077e-031 -1.765562519e-031 -13.72270012
rhand  -7.920061211e-032 -33.2840004 9.303460121
rfingers  -90 -7.125020027 -90
rthumb  -92.93752616 -24.25625642 -97.11982154
rfemur  -43.38750076 13.97910023 2.362440109
rtibia  -0 0 52.01959991
rfoot  -0 -9.216650009 -10.83500004
rtoes  5.373923086 19.29304026 -105.8922705
lfemur  -13.53929996 8.65515995 -11.96720028
ltibia  -0 0 60.4056015
lfoot  8.870059622e-032 -5.59428978 -6.637660027
ltoes  -4.250644065 -19.5611806 -102.515957
190
root  2.112768954 38.91555606 -4.71662236 -1.179992676 -23.5980072 6.119995117
lowerback  15.74960041 -0.5855330229 -6.564070225
upperback  6.896249771 -1.827950001 -1.205350041
thorax  -1.313310027 -1.056900024 2.735500097
lowerneck  0.8329730034 -1.399839997 -10.62090015
upperneck  7.199319839 -2.380800009 10.00769997
head  2.221299887 -1.230239987 4.732590199
lclavicle  0 -9.442270133e-015 7.951389973e-016
lhumerus  19.55949974 -19.53919983 81.03350067
lradius  1.840118249e-031 -3.013769876e-031 121.4069977
lwrist  -7.062250077e-031 -0 14.99619961
lhand  -1.496451383e-031 -27.76390076 20.11240005
lfingers  90 7.125020027 -90
lthumb  89.89689403 5.08795885 91.16245106
rclavicle  0 -9.442270133e-015 7.951389973e-016
rhumerus  17.83869934 9.405059814 -80.17350006
rradius  -2.320623866e-031 2.661493737e-031 131.0859985
rwrist  7.062250077e-031 1.765562519e-031 -13.85229969
rhand  -7.920061211e-032 -33.2840004 9.303460121
rfingers  -90 -7.125020027 -90
rthumb  -92.93752616 -24.25625642 -97.11982154
rfemur  -42.16019821 12.71020031 2.141469955
rtibia  -0 0 55.80329895
rfoot  -0 -10.49969959 -12.01679993
rtoes  5.373923086 19.29304026 -105.8922705
lfemur  -13.10249996 7.454470158 -13.2887001
ltibia  -0 0 60.06999969
lfoot  4.449507882e-032 -7.252810001 -6.06483984
ltoes  -4.250644065 -19.5611806 -102.515957
191
root  2.259733358 38.86266693 -4.962822396 -1.520004272 -24.13999939 6.188995361
lowerback  15.84029961 -0.5312470198 -6.274449825
upperback  6.897540092 -1.725729942 -1.213780046
thorax  -1.381850004 -0.9995210171 2.550339937
lowerneck  0.6475639939 -1.445309997 -10.56410027
upperneck  7.258299828 -2.408250093 9.698349953
head  2.269840002 -1.244889975 4.624849796
lclavicle  0 -9.442270133e-015 7.951389973e-016
lhumerus  19.65539932 -19.2208004 81.24729919
lradius  1.855034263e-031 -3.004611775e-031 121.6910019
lwrist  -7.062250077e-031 1.765562519e-031 14.81229973
lhand  -1.496451383e-031 -27.76390076 20.11240005
lfingers  90 7.125020027 -90
lthumb  89.89689403 5.08795885 91.16245106
rclavicle  0 -9.442270133e-015 7.951389973e-016
rhumerus  18.43930054 9.309820175 -80.37159729
rradius  -2.340717457e-031 2.64383922e-031 131.5200043
rwrist  1.412450015e-030 -0 -13.99699974
rhand  -7.920061211e-032 -33.2840004 9.303460121
rfingers  -90 -7.125020027 -90
rthumb  -92.93752616 -24.25625642 -97.11982154
rfemur  -41.69340134 11.82670021 2.687119961
rtibia  -0 0 59.66600037
rfoot  -0 -11.56840038 -13.31519985
rtoes  5.373923086 19.29304026 -105.8922705
lfemur  -13.41779995 6.794149876 -13.33539963
ltibia  -0 0 59.89860153
lfoot  8.926263063e-032 -8.517490387 -6.217830181
ltoes  -4.250644065 -19.5611806 -102.515957
192
root  2.408177834 38.79666666 -5.210999992 -1.957000732 -24.73899841 6.479995728
lowerback  15.97550011 -0.4367769957 -6.169469833
upperback  6.866630077 -1.603760004 -1.282330036
thorax  -1.503299952 -0.9328290224 2.40354991
lowerneck  0.4028539956 -1.476189971 -10.53989983
upperneck  7.383989811 -2.418809891 9.470849991
head  2.346859932 -1.249379992 4.548309803
lclavicle  0 -9.442270133e-015 7.951389973e-016
lhumerus  19.69020081 -18.90629959 81.39240265
lradius  1.87450293e-031 -2.992504436e-031 122.0630035
lwrist  -7.062250077e-031 1.765562519e-031 14.97169971
lhand  -1.496451383e-031 -27.76390076 20.11240005
lfingers  90 7.125020027 -90
lthumb  89.89689403 5.08795885 91.16245106
rclavicle  0 -9.442270133e-015 7.951389973e-016
rhumerus  18.95100021 9.25026989 -80.53489685
rradius  -2.360722201e-031 2.625992142e-031 131.9550018
rwrist  7.062250077e-031 -3.531125038e-031 -14.1487999
rhand  -7.920061211e-032 -33.2840004 9.303460121
rfingers  -90 -7.125020027 -90
rthumb  -92.93752616 -24.25625642 -97.11982154
rfemur  -41.21630096 11.06429958 2.836179972
rtibia  -0 0 63.53580093
rfoot  -0 -12.46920013 -13.80270004
rtoes  5.373923086 19.29304026 -105.8922705
lfemur  -13.62730026 6.430089951 -13.57909966
ltibia  -0 0 59.70959854
lfoot  4.478496842e-032 -9.742699623 -6.24202013
ltoes  -4.250644065 -19.5611806 -102.515957
193
root  2.553622178 38.71155686 -5.466688712 -2.341995239 -25.24000549 6.774993896
lowerback  16.12560081 -0.3683269918 -6.078120232
upperback  6.778540134 -1.519209981 -1.327929974
thorax  -1.688220024 -0.8819379807 2.29531002
lowerneck  0.2314919978 -1.466969967 -10.69970036
upperneck  7.450970173 -2.388880014 9.446519852
head  2.393840075 -1.235499978 4.567029953
lclavicle  0 -9.442270133e-015 7.951389973e-016
lhumerus  19.67399979 -18.66259956 81.43579865
lradius  1.903038099e-031 -2.974439448e-031 122.6110001
lwrist  0 -1.765562519e-031 15.22270012
lhand  -1.496451383e-031 -27.76390076 20.11240005
lfingers  90 7.125020027 -90
lthumb  89.89689403 5.08795885 91.16245106
rclavicle  0 -9.442270133e-015 7.951389973e-016
rhumerus  19.40589905 9.257040024 -80.64219666
rradius  -2.37398294e-031 2.614010145e-031 132.2449951
rwrist  0 -0 -14.12940025
rhand  -7.920061211e-032 -33.2840004 9.303460121
rfingers  -90 -7.125020027 -90
rthumb  -92.93752616 -24.25625642 -97.11982154
rfemur  -40.64730072 10.32520008 2.851720095
rtibia  -0 0 67.25759888
rfoot  -0 -12.83720016 -14.08699989
rtoes  5.373923086 19.29304026 -105.8922705
lfemur  -13.89820004 6.242780209 -13.80109978
ltibia  -0 0 59.62070084
lfoot  4.497467133e-032 -11.06190014 -5.886240005
ltoes  -4.250644065 -19.5611806 -102.515957
